<?xml version="1.0" standalone="no"?>
<!DOCTYPE svg PUBLIC "-//W3C//DTD SVG 20010904//EN"
 "http://www.w3.org/TR/2001/REC-SVG-20010904/DTD/svg10.dtd">
<svg version="1.0" xmlns="http://www.w3.org/2000/svg"
 width="1280.000000pt" height="1102.000000pt" viewBox="0 0 1280.000000 1102.000000"
 preserveAspectRatio="xMidYMid meet">
<g transform="translate(0.000000,1102.000000) scale(0.100000,-0.100000)"
fill="#000000" stroke="none">
<path d="M6225 10996 c-105 -28 -155 -49 -222 -92 -111 -71 -217 -191 -267
-305 -30 -69 -56 -184 -56 -248 0 -83 46 -277 85 -359 47 -99 82 -141 159
-192 36 -23 67 -49 70 -58 10 -37 18 -870 8 -876 -14 -9 -201 58 -307 109
-224 109 -359 236 -418 393 -20 53 -21 76 -22 347 0 287 -1 291 -27 365 -72
204 -219 385 -450 557 -176 130 -173 128 -263 127 -152 -2 -308 -57 -550 -194
l-145 -83 0 -37 c0 -20 -6 -44 -13 -54 -13 -17 -14 -17 -20 -2 -4 9 -2 28 4
42 5 15 7 29 4 32 -3 3 -112 -47 -243 -111 -730 -357 -1380 -544 -2162 -623
-125 -13 -285 -17 -665 -19 -536 -2 -574 -5 -665 -56 -63 -36 -67 -52 -24
-111 64 -86 171 -162 359 -253 309 -150 461 -208 636 -243 96 -19 112 -31 86
-60 -50 -58 -62 -144 -25 -198 76 -110 340 -195 731 -233 48 -5 91 -12 94 -15
4 -4 1 -23 -6 -42 -21 -57 -7 -97 49 -147 58 -52 158 -97 287 -129 124 -31
345 -31 490 1 57 12 107 19 113 16 5 -3 10 -25 10 -48 1 -81 57 -161 145 -206
130 -66 349 -76 538 -24 32 9 60 13 63 11 3 -3 -3 -22 -12 -42 -59 -122 129
-193 571 -216 110 -6 202 -14 205 -17 3 -3 -20 -26 -50 -51 -129 -108 -228
-229 -276 -339 -124 -281 -30 -567 249 -754 199 -133 434 -228 730 -293 15 -4
27 -10 27 -15 0 -5 -36 -39 -79 -75 -78 -65 -164 -168 -214 -256 -42 -73 -78
-197 -84 -290 -5 -80 -3 -93 32 -195 57 -170 118 -267 247 -391 136 -132 359
-274 545 -347 23 -9 44 -20 47 -26 3 -5 -29 -34 -72 -64 -192 -135 -284 -311
-285 -547 0 -118 22 -209 76 -313 74 -145 146 -203 571 -463 98 -60 180 -115
183 -122 3 -8 -20 -40 -54 -75 -133 -137 -227 -288 -252 -405 -12 -59 -15
-282 -3 -282 4 0 8 -26 8 -57 0 -42 7 -72 26 -108 37 -71 129 -168 214 -226
40 -27 75 -53 78 -58 4 -5 -10 -29 -29 -53 -171 -212 -237 -382 -206 -523 20
-90 84 -205 158 -285 75 -81 73 -60 16 -190 -24 -56 -28 -78 -28 -160 0 -91 2
-98 38 -166 46 -86 68 -108 155 -154 l67 -35 3 -169 c1 -96 7 -175 13 -182 5
-7 29 -14 52 -17 141 -19 159 -19 182 -7 23 12 24 20 27 104 l3 91 44 -3 c93
-6 179 70 189 166 6 71 -15 155 -54 214 -40 58 -39 64 23 193 18 38 33 80 33
93 0 85 -56 172 -150 233 -78 50 -75 66 13 94 86 27 203 109 264 185 74 91
127 201 119 244 -5 24 -2 37 9 46 11 9 15 31 15 79 0 128 -46 253 -127 341
l-32 37 36 53 c46 69 97 178 117 255 26 96 32 256 12 355 -20 104 -86 243
-151 320 l-47 54 22 18 c13 10 62 39 109 65 303 162 376 209 475 308 52 52 77
89 129 192 36 70 72 152 81 182 18 62 21 117 6 126 -6 3 -8 16 -4 28 7 30 -45
183 -87 254 -47 79 -169 205 -261 270 -43 30 -78 58 -78 62 0 5 48 27 108 51
349 137 626 365 747 615 97 199 101 361 16 561 -53 124 -105 207 -174 278 -37
38 -64 73 -60 76 4 4 42 15 83 25 381 90 745 314 845 519 116 236 26 582 -208
809 -42 40 -67 71 -61 76 5 5 113 16 239 25 130 9 252 22 281 31 126 37 205
89 204 134 -1 9 -7 33 -14 54 -8 20 -10 39 -6 42 4 2 44 -9 88 -25 44 -16 118
-35 165 -41 103 -15 177 0 301 60 156 76 216 145 201 231 -8 48 -5 49 111 23
60 -14 124 -18 264 -18 160 0 196 3 268 23 240 65 350 167 300 277 -17 37 -7
41 130 49 231 13 447 58 541 113 61 36 126 97 145 137 22 48 21 123 -4 164
-30 49 -26 58 38 71 93 20 402 117 514 161 238 95 480 258 532 359 16 30 16
33 -4 61 -14 20 -39 35 -83 49 -116 38 -201 43 -474 30 -221 -11 -279 -11
-485 4 -735 55 -1176 125 -1528 245 -383 131 -951 386 -1540 693 -184 96 -363
139 -453 110 -58 -20 -147 -83 -273 -194 -259 -228 -336 -344 -405 -608 -23
-89 -23 -186 1 -349 26 -180 -22 -314 -164 -455 -130 -128 -287 -209 -528
-272 -67 -18 -102 -23 -109 -16 -10 10 5 764 17 860 4 36 12 47 61 84 183 142
281 392 244 629 -49 315 -253 514 -601 585 -96 19 -137 18 -235 -9z m-240
-3296 c20 -5 41 -12 45 -17 8 -8 30 -752 30 -1006 0 -111 -3 -139 -15 -143
-21 -8 -280 22 -526 61 -118 19 -302 46 -408 60 -226 29 -252 35 -345 82 -178
90 -289 270 -273 444 12 132 98 210 277 251 25 5 203 13 395 17 318 7 358 10
435 31 96 25 169 59 200 92 24 26 26 75 4 106 -25 36 -9 45 71 37 39 -3 89
-10 110 -15z m1013 -19 c11 -6 10 -15 -5 -45 -17 -36 -17 -39 2 -74 29 -53
100 -88 221 -109 76 -12 177 -17 434 -18 276 -2 345 -5 393 -18 118 -34 197
-90 240 -171 18 -34 22 -57 22 -136 -1 -84 -4 -102 -30 -155 -43 -91 -138
-179 -255 -238 -136 -68 -202 -82 -550 -117 -58 -6 -170 -20 -250 -30 -234
-31 -540 -61 -552 -54 -8 5 -9 65 -5 203 4 108 12 358 18 556 6 203 15 365 20
372 11 12 112 31 199 36 30 2 62 4 70 5 8 1 21 -2 28 -7z m-173 -1561 c427
-70 699 -190 746 -328 18 -52 16 -177 -4 -242 -27 -88 -101 -185 -212 -278
-129 -108 -220 -164 -353 -217 -129 -52 -367 -114 -380 -100 -6 6 -6 132 -1
305 4 162 11 421 15 575 4 157 11 285 17 293 13 16 31 15 172 -8z m-751 -63
c3 -23 8 -206 11 -407 3 -201 8 -436 12 -522 l6 -158 -31 0 c-41 0 -247 63
-346 105 -108 46 -226 119 -296 182 -32 29 -89 97 -127 150 -110 155 -116 167
-115 234 2 133 95 245 274 329 139 65 287 100 558 133 40 5 49 -2 54 -46z
m625 -1647 c76 -29 147 -66 216 -113 97 -66 124 -96 141 -156 13 -43 22 -56
44 -64 l28 -11 -19 -25 c-11 -14 -44 -66 -72 -116 -70 -121 -216 -267 -346
-347 -52 -32 -98 -55 -102 -52 -13 8 -10 317 3 469 7 72 11 199 10 283 l-3
152 23 0 c13 0 47 -9 77 -20z m-585 -17 c2 -10 7 -192 11 -405 6 -346 5 -388
-8 -388 -26 0 -164 117 -228 194 -34 39 -79 102 -102 141 -40 66 -42 73 -42
151 0 75 3 86 30 126 40 56 111 109 210 158 88 44 121 49 129 23z m464 -1817
c-2 -55 -9 -110 -16 -121 -9 -16 -11 3 -12 102 0 67 3 129 6 138 15 39 26 -20
22 -119z m-427 -53 c-9 -17 -10 -17 -16 0 -4 9 -4 25 0 35 6 16 7 16 16 0 7
-12 7 -24 0 -35z m9 -1103 c0 -5 -6 -10 -14 -10 -8 0 -18 5 -21 10 -3 6 3 10
14 10 12 0 21 -4 21 -10z"/>
</g>
</svg>
