<?xml version="1.0" encoding="UTF-8" standalone="no"?>
<svg
   xmlns:dc="http://purl.org/dc/elements/1.1/"
   xmlns:cc="http://creativecommons.org/ns#"
   xmlns:rdf="http://www.w3.org/1999/02/22-rdf-syntax-ns#"
   xmlns:svg="http://www.w3.org/2000/svg"
   xmlns="http://www.w3.org/2000/svg"
   xmlns:sodipodi="http://sodipodi.sourceforge.net/DTD/sodipodi-0.dtd"
   xmlns:inkscape="http://www.inkscape.org/namespaces/inkscape"
   sodipodi:docname="bc.svg"
   viewBox="0 0 337.5 202.5"
   height="202.5"
   width="337.5"
   xml:space="preserve"
   inkscape:version="1.0 (4035a4f, 2020-05-01)"
   version="1.1"
   id="svg3396"><metadata
     id="metadata3402"><rdf:RDF><cc:Work
         rdf:about=""><dc:format>image/svg+xml</dc:format><dc:type
           rdf:resource="http://purl.org/dc/dcmitype/StillImage" /><dc:title /></cc:Work></rdf:RDF></metadata><defs
     id="defs3400"><clipPath
       id="clipPath3410"
       clipPathUnits="userSpaceOnUse"><path
         inkscape:connector-curvature="0"
         id="path3412"
         d="M 0,162 270,162 270,0 0,0 0,162 Z" /></clipPath><clipPath
       id="clipPath3430"
       clipPathUnits="userSpaceOnUse"><path
         inkscape:connector-curvature="0"
         id="path3432"
         d="M 0,162 270,162 270,0 0,0 0,162 Z" /></clipPath></defs><sodipodi:namedview
     inkscape:document-rotation="0"
     inkscape:current-layer="g3404"
     inkscape:window-maximized="0"
     inkscape:window-y="0"
     inkscape:window-x="0"
     inkscape:cy="110.89535"
     inkscape:cx="160.09039"
     inkscape:zoom="2.7127667"
     showgrid="true"
     id="namedview3398"
     inkscape:window-height="900"
     inkscape:window-width="1440"
     inkscape:pageshadow="2"
     inkscape:pageopacity="0"
     guidetolerance="1"
     gridtolerance="1"
     objecttolerance="1"
     borderopacity="1"
     bordercolor="#666666"
     pagecolor="#ffffff"><inkscape:grid
       spacingy="4"
       spacingx="4"
       id="grid21"
       type="xygrid" /></sodipodi:namedview><g
     transform="matrix(1.25,0,0,-1.25,0,202.5)"
     inkscape:label="bc-front"
     inkscape:groupmode="layer"
     id="g3404"><text
   y="-110.49471"
   x="35.126194"
   id="text3422"
   style="font-variant:normal;font-weight:500;font-stretch:normal;font-size:42.6667px;line-height:0%;font-family:Futura;-inkscape-font-specification:Futura-Medium;writing-mode:lr-tb;fill:#231f20;fill-opacity:1;fill-rule:nonzero;stroke:none"
   transform="scale(1,-1)"><tspan
     y="-110.49471"
     x="35.126194"
     style="font-size:42.6667px;line-height:1.25"
     id="tspan3424"
     sodipodi:role="line"><tspan
   id="tspan3837"
   style="font-size:42.6667px;line-height:1">livelong</tspan>.ai</tspan></text>
<path
   id="path16"
   d="m 136,65.514064 a 24,24 0 0 1 -4.8,-0.510936 V 18 a 24,24 0 0 1 4.8,-0.485936 24,24 0 0 1 5.55313,0.678128 V 64.834376 A 24,24 0 0 1 136,65.514064 Z m -9.76875,-2.110936 A 24,24 0 0 1 112,41.514064 a 24,24 0 0 1 14.23125,-21.9 z m 20.45157,-0.409376 V 20.054688 A 24,24 0 0 1 160,41.514064 24,24 0 0 1 146.68282,62.993752 Z"
   style="stroke-width:0.8" /></g></svg>
